<svg width="70" height="70" fill="none" xmlns="http://www.w3.org/2000/svg"><circle cx="35" cy="35" r="35" fill="#2C6269"/><path fill-rule="evenodd" clip-rule="evenodd" d="M51 8.667A4.671 4.671 0 0 1 55.667 4a4.671 4.671 0 0 1 4.666 4.667 4.671 4.671 0 0 1-4.666 4.666c-.851 0-1.65-.228-2.337-.628l-8.301 8.302a4.671 4.671 0 0 1-4.362 6.327 4.671 4.671 0 0 1-4.628-5.276l-5.123-1.461a4.673 4.673 0 0 1-4.25 2.736 4.64 4.64 0 0 1-2.598-.791c-.07.204-.196.392-.378.538l-7.94 6.33c.372.67.583 1.439.583 2.257a4.671 4.671 0 0 1-4.666 4.666A4.671 4.671 0 0 1 7 31.667 4.671 4.671 0 0 1 11.667 27c.907 0 1.755.26 2.472.71l8.098-6.457c.126-.1.267-.17.414-.21A4.64 4.64 0 0 1 22 18.666 4.671 4.671 0 0 1 26.667 14a4.672 4.672 0 0 1 4.65 4.285l5.606 1.598a4.662 4.662 0 0 1 6.73-.8l8.014-8.014A4.64 4.64 0 0 1 51 8.667Zm-12.667 14c0-.15.015-.296.042-.438a1.163 1.163 0 0 0 .45-.994 2.33 2.33 0 0 1 1.842-.902A2.336 2.336 0 0 1 43 22.667 2.336 2.336 0 0 1 40.667 25a2.336 2.336 0 0 1-2.334-2.333Zm15.727-12.31-.016-.016a2.327 2.327 0 0 1-.71-1.675 2.336 2.336 0 0 1 2.333-2.333A2.336 2.336 0 0 1 58 8.667 2.336 2.336 0 0 1 55.667 11a2.324 2.324 0 0 1-1.607-.642Zm-29.727 8.31A2.336 2.336 0 0 0 26.667 21 2.336 2.336 0 0 0 29 18.667a2.336 2.336 0 0 0-2.333-2.334 2.336 2.336 0 0 0-2.334 2.334Zm28.167 1h7c.644 0 1.167.522 1.167 1.166v33.834h1.166a1.167 1.167 0 0 1 0 2.333H8.167a1.167 1.167 0 0 1 0-2.333h1.166V41.833c0-.644.523-1.166 1.167-1.166h7c.644 0 1.167.522 1.167 1.166v12.834h4.666v-24.5c0-.644.523-1.167 1.167-1.167h7c.644 0 1.167.523 1.167 1.167v24.5h4.666V34.833c0-.644.523-1.166 1.167-1.166h7c.644 0 1.167.522 1.167 1.166v19.834h4.666V20.833c0-.644.523-1.166 1.167-1.166ZM58.333 22v32.667h-4.666V22h4.666Zm-14 32.667V36h-4.666v18.667h4.666ZM25.667 31.333h4.666v23.334h-4.666V31.333Zm-9.334 23.334V43h-4.666v11.667h4.666ZM11.667 34a2.336 2.336 0 0 1-2.334-2.333 2.336 2.336 0 0 1 2.334-2.334A2.336 2.336 0 0 1 14 31.667 2.336 2.336 0 0 1 11.667 34Z" fill="#79C8C7"/></svg>